<?xml version="1.0" encoding="UTF-8"?>
<svg version="1.1" xmlns="http://www.w3.org/2000/svg" width="260" height="280">
<path d="M0 0 C85.8 0 171.6 0 260 0 C260 92.4 260 184.8 260 280 C174.2 280 88.4 280 0 280 C0 187.6 0 95.2 0 0 Z " fill="#000000" transform="translate(0,0)"/>
<path d="M0 0 C85.8 0 171.6 0 260 0 C260 6.6 260 13.2 260 20 C174.2 20 88.4 20 0 20 C0 13.4 0 6.8 0 0 Z " fill="#F9F9F9" transform="translate(0,260)"/>
<path d="M0 0 C3.554289 2.19307193 5.50976415 4.1253868 7 8 C7.1953125 11.234375 7.1953125 11.234375 7.125 14.75 C7.10695313 15.92046875 7.08890625 17.0909375 7.0703125 18.296875 C7.04710937 19.18890625 7.02390625 20.0809375 7 21 C4.03 21 1.06 21 -2 21 C-1.95359375 20.13117188 -1.9071875 19.26234375 -1.859375 18.3671875 C-1.48935804 9.3627319 -1.48935804 9.3627319 -6 2 C-8.43717258 2.27034634 -8.43717258 2.27034634 -11 3 C-13.43755101 6.65632651 -13.34342006 9.45531641 -13.3125 13.6875 C-13.31056641 14.76354492 -13.31056641 14.76354492 -13.30859375 15.86132812 C-13.21083276 21.24307067 -12.39032436 25.21935128 -10 30 C-6.59548229 28.86516076 -6.3994436 28.44722063 -4.8125 25.4375 C-4.214375 24.303125 -3.61625 23.16875 -3 22 C-2.505 23.98 -2.505 23.98 -2 26 C-0.35 26 1.3 26 3 26 C2.49477778 30.37859255 -0.17827222 32.81651224 -3 36 C-1.60667426 39.36720387 -0.0210714 40.9859524 3 43 C4.65 41.02 6.3 39.04 8 37 C8 40.99904969 6.27413033 42.80200422 4 46 C5.485 46.495 5.485 46.495 7 47 C6.505 47.99 6.505 47.99 6 49 C4.515 48.505 4.515 48.505 3 48 C2.73372803 48.589021 2.46745605 49.17804199 2.19311523 49.78491211 C0.95350564 52.50821195 -0.3043433 55.22272194 -1.5625 57.9375 C-1.98080078 58.86369141 -2.39910156 59.78988281 -2.83007812 60.74414062 C-6.87547178 69.41284131 -12.50071577 78.99938163 -21 84 C-24.10931092 85.09641163 -26.72680035 85.45127883 -30 85 C-32.06655795 83.94754677 -33.82903214 82.6924646 -35.703125 81.328125 C-38.58203963 79.66344647 -41.24357104 79.14528316 -44.5 78.5 C-54.16758552 76.47940765 -60.2532781 72.03321603 -66 64 C-70.02939455 56.57587745 -71.0588001 49.33805075 -70 41 C-67.04687723 32.4197378 -62.8010114 25.00027234 -55 20 C-54.33484375 19.57074219 -53.6696875 19.14148438 -52.984375 18.69921875 C-46.40132923 15.15168853 -39.30752607 15.2632506 -32 16 C-29.98974507 16.63507446 -27.98768918 17.29747872 -26 18 C-22.74955291 18.16798469 -22.74955291 18.16798469 -20 18 C-19.67 17.34 -19.34 16.68 -19 16 C-18.34 16 -17.68 16 -17 16 C-16.90203125 15.26394531 -16.8040625 14.52789062 -16.703125 13.76953125 C-15.19591207 3.93366757 -15.19591207 3.93366757 -11 0 C-7.50452678 -1.74773661 -3.71861548 -0.8363668 0 0 Z " fill="#050401" transform="translate(131,68)"/>
<path d="M0 0 C5.875 3.625 5.875 3.625 7 7 C7.33926947 9.33247761 7.67240066 11.66585471 8 14 C8.17015625 14.62390625 8.3403125 15.2478125 8.515625 15.890625 C11.33018079 28.14756152 8.09032868 43.00517944 1.74609375 53.62109375 C-1.85934801 58.53320568 -6.34406526 62.62030143 -12 65 C-17.30724937 65.52202453 -20.92526454 65.23681779 -25.4609375 62.34765625 C-28.17347053 59.9724687 -29.44336125 57.23301895 -31 54 C-31.33 53.34 -31.66 52.68 -32 52 C-32.91566754 40.80269404 -32.36646666 32.58514634 -25.0390625 23.59375 C-19.2742144 17.37637116 -12.62812271 12.70668403 -5.53808594 8.10986328 C-4.82168945 7.63274902 -4.10529297 7.15563477 -3.3671875 6.6640625 C-2.71862793 6.24592285 -2.07006836 5.8277832 -1.40185547 5.39697266 C-0.93924316 4.93597168 -0.47663086 4.4749707 0 4 C0 2.68 0 1.36 0 0 Z " fill="#040201" transform="translate(150,128)"/>
<path d="M0 0 C3.554289 2.19307193 5.50976415 4.1253868 7 8 C7.1953125 11.234375 7.1953125 11.234375 7.125 14.75 C7.10695312 15.92046875 7.08890625 17.0909375 7.0703125 18.296875 C7.04710937 19.18890625 7.02390625 20.0809375 7 21 C4.03 21 1.06 21 -2 21 C-1.95359375 20.13117188 -1.9071875 19.26234375 -1.859375 18.3671875 C-1.48935804 9.3627319 -1.48935804 9.3627319 -6 2 C-8.43717258 2.27034634 -8.43717258 2.27034634 -11 3 C-13.43755101 6.65632651 -13.34342006 9.45531641 -13.3125 13.6875 C-13.31056641 14.76354492 -13.31056641 14.76354492 -13.30859375 15.86132812 C-13.21083276 21.24307067 -12.39032436 25.21935128 -10 30 C-6.59548229 28.86516076 -6.3994436 28.44722063 -4.8125 25.4375 C-4.214375 24.303125 -3.61625 23.16875 -3 22 C-2.505 23.98 -2.505 23.98 -2 26 C-0.35 26 1.3 26 3 26 C2.49477778 30.37859255 -0.17827222 32.81651224 -3 36 C-1.60667426 39.36720387 -0.0210714 40.9859524 3 43 C4.65 41.02 6.3 39.04 8 37 C8 40.99904969 6.27413033 42.80200422 4 46 C4.99 46.33 5.98 46.66 7 47 C6.505 47.99 6.505 47.99 6 49 C5.01 48.67 4.02 48.34 3 48 C2.73372803 48.589021 2.46745605 49.17804199 2.19311523 49.78491211 C0.95350564 52.50821195 -0.3043433 55.22272194 -1.5625 57.9375 C-1.98080078 58.86369141 -2.39910156 59.78988281 -2.83007812 60.74414062 C-6.86517524 69.39077729 -12.49835125 79.03630446 -21 84 C-25.73044624 85.54091594 -28.87255641 85.54284321 -33.375 83.375 C-37.06855611 80.03321113 -38.75356765 77.7954357 -39.4375 72.8125 C-38.48735818 64.53269269 -35.28563651 58.60976715 -29.390625 52.7890625 C-27.5908654 50.85130173 -27.5908654 50.85130173 -28 47 C-29.32 46.67 -30.64 46.34 -32 46 C-32 45.34 -32 44.68 -32 44 C-27.71 44 -23.42 44 -19 44 C-19 43.34 -19 42.68 -19 42 C-17.28636151 40.43401182 -15.46624657 39.05071958 -13.62890625 37.6328125 C-11.71457837 35.71389391 -11.20989982 34.69286115 -11 32 C-11.70024112 29.9502099 -11.70024112 29.9502099 -12.875 28 C-16.48289086 21.54111847 -16.54823984 15.31312781 -16 8 C-14.82292157 4.64532647 -13.62334619 2.74322046 -11.375 0.0625 C-7.53582952 -1.65502363 -3.99943244 -1.05699286 0 0 Z " fill="#1B180C" transform="translate(131,68)"/>
<path d="M0 0 C6.41927715 0.12058311 11.03786494 1.18094205 15.9375 5.4375 C21.54768623 12.24794242 22.60003344 18.79956396 21.9375 27.4375 C19.9316231 38.82867248 13.80669156 50.02404201 4.9375 57.4375 C2.4625 54.9625 2.4625 54.9625 -0.0625 52.4375 C0.39640625 51.83164063 0.8553125 51.22578125 1.328125 50.6015625 C5.57496124 44.80231133 8.60851502 39.23640024 10.9375 32.4375 C10.67582031 33.01628906 10.41414063 33.59507813 10.14453125 34.19140625 C7.00192389 40.0393002 1.67537444 44.84319752 -3.0625 49.4375 C-1.45388517 53.41155139 1.31147811 56.13439474 4.28515625 59.12109375 C4.81588242 59.65847672 5.34660858 60.19585968 5.89341736 60.74952698 C7.01801373 61.8842312 8.14532402 63.01625124 9.27514648 64.14575195 C10.98042721 65.85537734 12.66908755 67.58029965 14.35742188 69.30664062 C21.03435352 76.05359068 27.36466474 82.31449755 36.9375 84.4375 C36.9375 85.0975 36.9375 85.7575 36.9375 86.4375 C26.7075 86.4375 16.4775 86.4375 5.9375 86.4375 C5.9375 85.7775 5.9375 85.1175 5.9375 84.4375 C8.4125 83.4475 8.4125 83.4475 10.9375 82.4375 C10.47461397 78.15249792 7.75111557 75.86664587 4.80859375 73.015625 C4.29949966 72.51077576 3.79040558 72.00592651 3.2658844 71.48577881 C1.6425088 69.87916021 0.009003 68.28330178 -1.625 66.6875 C-2.7292005 65.59835016 -3.83272445 64.50851395 -4.93554688 63.41796875 C-7.6367529 60.7497924 -10.34709063 58.09121709 -13.0625 55.4375 C-13.15660156 56.6853125 -13.25070313 57.933125 -13.34765625 59.21875 C-13.69976546 62.02572253 -13.90176749 63.22157864 -15.62109375 65.53125 C-16.55115234 66.22734375 -16.55115234 66.22734375 -17.5 66.9375 C-18.11746094 67.4221875 -18.73492187 67.906875 -19.37109375 68.40625 C-21.0625 69.4375 -21.0625 69.4375 -23.0625 69.4375 C-23.23645523 65.41779604 -23.36297689 61.39956763 -23.44702148 57.37695312 C-23.48207479 56.01100479 -23.52973632 54.64531634 -23.59057617 53.28027344 C-24.08220819 41.9603429 -24.08220819 41.9603429 -21.54345703 38.16894531 C-17.3129501 34.4375 -17.3129501 34.4375 -14.0625 34.4375 C-14.0625 40.3775 -14.0625 46.3175 -14.0625 52.4375 C-12.7425 51.1175 -11.4225 49.7975 -10.0625 48.4375 C-11.0525 48.1075 -12.0425 47.7775 -13.0625 47.4375 C-12.7325 46.1175 -12.4025 44.7975 -12.0625 43.4375 C-10.7425 43.7675 -9.4225 44.0975 -8.0625 44.4375 C-7.69195129 39.79768125 -7.69195129 39.79768125 -9.125 35.5 C-12.15663555 33.83749018 -14.67280622 34.14015844 -18.0625 34.4375 C-20.41619807 35.31814927 -20.41619807 35.31814927 -22.0625 36.4375 C-21.125 34.4375 -21.125 34.4375 -19.0625 32.4375 C-15.9485092 31.759502 -13.1829407 31.81450483 -10.0625 32.4375 C-7 34.5 -7 34.5 -5.0625 37.4375 C-4.98583586 39.76957355 -4.97735847 42.10572056 -5.0625 44.4375 C-2.89705774 42.43469179 -0.75682738 40.41307162 1.375 38.375 C1.98666016 37.81361328 2.59832031 37.25222656 3.22851562 36.67382812 C7.34611016 32.69272844 8.76866094 30.20005052 8.9375 24.4375 C7.6175 23.7775 6.2975 23.1175 4.9375 22.4375 C7.2475 22.4375 9.5575 22.4375 11.9375 22.4375 C12.56414967 15.54435362 11.18603695 10.96734174 6.9375 5.4375 C2.20367933 1.88713449 -2.38562003 2.0968872 -8.0625 2.4375 C-5.35380571 -0.27119429 -3.78435348 0.07524446 0 0 Z " fill="#C6AC5A" transform="translate(162.0625,68.5625)"/>
<path d="M0 0 C3.25044709 0.16798469 3.25044709 0.16798469 6 0 C6.33 -0.66 6.66 -1.32 7 -2 C7.66 -2 8.32 -2 9 -2 C9.495 7.405 9.495 7.405 10 17 C9.34 17 8.68 17 8 17 C7.65388672 16.22076172 7.65388672 16.22076172 7.30078125 15.42578125 C4.79481756 10.06717906 2.23539872 5.54170006 -3.328125 2.890625 C-9.12318834 0.95893722 -15.65541926 1.05499869 -21.3125 3.4375 C-27.01903243 6.74189866 -29.91890525 12.39554446 -32.375 18.3125 C-34.17937107 28.95828929 -33.36781222 39.13313573 -27.45703125 48.42578125 C-23.56812533 53.29358798 -19.9618292 55.32650408 -14 57 C-14 57.99 -14 58.98 -14 60 C-21.96479891 60.73748138 -27.90129534 58.36953436 -34.0859375 53.28515625 C-41.13114146 46.49262838 -43.97366245 39.62976604 -44.5625 29.9375 C-44.40895611 21.06266322 -40.72318294 13.43164285 -35.0703125 6.703125 C-33.13941511 4.88854673 -31.22900408 3.42874134 -29 2 C-28.00226563 1.35611328 -28.00226563 1.35611328 -26.984375 0.69921875 C-18.59352752 -3.82251573 -8.73750849 -3.08815167 0 0 Z " fill="#C79F41" transform="translate(105,86)"/>
<path d="M0 0 C5.875 3.625 5.875 3.625 7 7 C7.33926947 9.33247761 7.67240066 11.66585471 8 14 C8.17015625 14.62390625 8.3403125 15.2478125 8.515625 15.890625 C11.33018079 28.14756152 8.09032868 43.00517944 1.74609375 53.62109375 C-1.85934801 58.53320568 -6.34406526 62.62030143 -12 65 C-17.30724937 65.52202453 -20.92526454 65.23681779 -25.4609375 62.34765625 C-28.17347053 59.9724687 -29.44336125 57.23301895 -31 54 C-31.33 53.34 -31.66 52.68 -32 52 C-32.91566754 40.80269404 -32.36646666 32.58514634 -25.0390625 23.59375 C-19.2742144 17.37637116 -12.62812271 12.70668403 -5.53808594 8.10986328 C-4.82168945 7.63274902 -4.10529297 7.15563477 -3.3671875 6.6640625 C-2.71862793 6.24592285 -2.07006836 5.8277832 -1.40185547 5.39697266 C-0.93924316 4.93597168 -0.47663086 4.4749707 0 4 C0 2.68 0 1.36 0 0 Z M-3.9375 13.8125 C-4.57107422 14.26431641 -5.20464844 14.71613281 -5.85742188 15.18164062 C-9.38324061 17.70516383 -9.38324061 17.70516383 -12.57763672 20.62304688 C-15.16833962 23.13103938 -18.53079502 22.71563894 -22 23 C-22 24.65 -22 26.3 -22 28 C-21.01 28.33 -20.02 28.66 -19 29 C-19.433125 29.73089844 -19.433125 29.73089844 -19.875 30.4765625 C-23.80118895 37.97449279 -24.70957972 46.43761136 -22.19921875 54.60546875 C-20.58379784 58.02966211 -19.16736372 59.88842419 -16 62 C-12.20086085 62.50655189 -10.34666323 62.18394375 -6.9375 60.375 C1.97063401 53.17267888 5.79184949 43.25090163 7 32 C7.37958813 24.02074112 7.50185011 16.65446997 5 9 C1.47310386 9 -1.16690032 11.79828244 -3.9375 13.8125 Z " fill="#E5D178" transform="translate(150,128)"/>
<path d="M0 0 C3.59331694 0.19962872 4.79828955 0.78738628 7.3125 3.4375 C9.88554951 8.86949342 9.89767615 14.30697156 8 20 C21.86 20.495 21.86 20.495 36 21 C36.495 22.485 36.495 22.485 37 24 C34.69 24.33 32.38 24.66 30 25 C28.89363605 27.39068734 28.89363605 27.39068734 28 30 C28.495 30.99 28.495 30.99 29 32 C28.030625 31.95875 27.06125 31.9175 26.0625 31.875 C20.03110868 32.62892392 16.54952661 38.56510394 13 43 C10.69 41.02 8.38 39.04 6 37 C8 33 8 33 10.0625 30.4375 C12.16384349 28.07973981 12.16384349 28.07973981 13 25 C11.35 25 9.7 25 8 25 C7.67 24.01 7.34 23.02 7 22 C5.35 24.64 3.7 27.28 2 30 C-1 29 -1 29 -2.6875 25.9375 C-4.15866388 21.63356313 -4.35804013 17.32428273 -4.4375 12.8125 C-4.45965576 12.12341553 -4.48181152 11.43433105 -4.50463867 10.72436523 C-4.48406471 5.86714714 -3.37887356 3.44578194 0 0 Z " fill="#1E1807" transform="translate(121,69)"/>
<path d="M0 0 C6.41927715 0.12058311 11.03786494 1.18094205 15.9375 5.4375 C21.54768623 12.24794242 22.60003344 18.79956396 21.9375 27.4375 C19.9316231 38.82867248 13.80669156 50.02404201 4.9375 57.4375 C3.2875 55.7875 1.6375 54.1375 -0.0625 52.4375 C0.39640625 51.83164063 0.8553125 51.22578125 1.328125 50.6015625 C8.21480006 41.37399048 8.21480006 41.37399048 10.9375 30.4375 C10.2775 30.1075 9.6175 29.7775 8.9375 29.4375 C8.9375 27.7875 8.9375 26.1375 8.9375 24.4375 C7.6175 23.7775 6.2975 23.1175 4.9375 22.4375 C7.2475 22.4375 9.5575 22.4375 11.9375 22.4375 C12.56414967 15.54435362 11.18603695 10.96734174 6.9375 5.4375 C2.20367933 1.88713449 -2.38562003 2.0968872 -8.0625 2.4375 C-5.35380571 -0.27119429 -3.78435348 0.07524446 0 0 Z " fill="#B29649" transform="translate(162.0625,68.5625)"/>
<path d="M0 0 C3.554289 2.19307193 5.50976415 4.1253868 7 8 C7.1953125 11.234375 7.1953125 11.234375 7.125 14.75 C7.10695312 15.92046875 7.08890625 17.0909375 7.0703125 18.296875 C7.04710937 19.18890625 7.02390625 20.0809375 7 21 C4.03 21 1.06 21 -2 21 C-1.95359375 20.13117188 -1.9071875 19.26234375 -1.859375 18.3671875 C-1.48935804 9.3627319 -1.48935804 9.3627319 -6 2 C-8.43717258 2.27034634 -8.43717258 2.27034634 -11 3 C-13.43755101 6.65632651 -13.34342006 9.45531641 -13.3125 13.6875 C-13.31121094 14.40486328 -13.30992188 15.12222656 -13.30859375 15.86132812 C-13.21083276 21.24307067 -12.39032436 25.21935128 -10 30 C-6.59548229 28.86516076 -6.3994436 28.44722063 -4.8125 25.4375 C-4.214375 24.303125 -3.61625 23.16875 -3 22 C-2.67 23.32 -2.34 24.64 -2 26 C-0.35 26 1.3 26 3 26 C2.49477778 30.37859255 -0.17827222 32.81651224 -3 36 C-1.60667426 39.36720387 -0.0210714 40.9859524 3 43 C5.475 40.03 5.475 40.03 8 37 C8 40.99904969 6.27413033 42.80200422 4 46 C5.485 46.495 5.485 46.495 7 47 C6.67 47.66 6.34 48.32 6 49 C4.515 48.505 4.515 48.505 3 48 C1.68 50.64 0.36 53.28 -1 56 C-1.33 55.01 -1.66 54.02 -2 53 C-1.484375 52.030625 -0.96875 51.06125 -0.4375 50.0625 C1.3160142 47.19891316 1.3160142 47.19891316 0.375 44.8125 C-0.07875 44.214375 -0.5325 43.61625 -1 43 C-1.45375 42.401875 -1.9075 41.80375 -2.375 41.1875 C-3.94462025 39.76597589 -3.94462025 39.76597589 -6.0625 40.1875 C-8.18712526 40.93470336 -8.18712526 40.93470336 -10 43 C-12.68839385 43.26991906 -15.29141936 43.08737357 -18 43 C-17.36771484 42.31164062 -17.36771484 42.31164062 -16.72265625 41.609375 C-15.90087891 40.68898438 -15.90087891 40.68898438 -15.0625 39.75 C-14.51722656 39.14671875 -13.97195312 38.5434375 -13.41015625 37.921875 C-11.88242681 35.83976175 -11.2437167 34.56648606 -11 32 C-11.70024112 29.9502099 -11.70024112 29.9502099 -12.875 28 C-16.48289086 21.54111847 -16.54823984 15.31312781 -16 8 C-14.82292157 4.64532647 -13.62334619 2.74322046 -11.375 0.0625 C-7.53582952 -1.65502363 -3.99943244 -1.05699286 0 0 Z " fill="#CCBE7D" transform="translate(131,68)"/>
<path d="M0 0 C0.41864773 6.97746209 0.45366533 12.1511904 -3.09375 18.2578125 C-4.51201602 20.98430666 -4.54284761 23.01433816 -4 26 C-2.58333333 28.58333333 -2.58333333 28.58333333 0 30 C6.47984733 30.2492249 10.29887319 26.99290511 15 23 C12.8394317 27.91827858 9.45783204 31.07383333 5 34 C1.89521921 35.08902935 -0.73446941 35.41726224 -4 35 C-8.41662206 32.87347827 -11.0983726 30.54277658 -13 26 C-13.86229093 19.71759463 -11.99882923 14.45241678 -9 9 C-2.14349112 0 -2.14349112 0 0 0 Z " fill="#D7B960" transform="translate(105,118)"/>
<path d="M0 0 C1.68670443 5.11344783 2.28512861 9.6620962 2.1875 15.0625 C2.18685547 15.74376953 2.18621094 16.42503906 2.18554688 17.12695312 C2.15050659 21.17994628 1.77541165 25.02368908 1 29 C0.67 29 0.34 29 0 29 C-0.07622858 25.03611362 0.0318352 21.8726592 1 18 C-7.58 18 -16.16 18 -25 18 C-25.33 17.01 -25.66 16.02 -26 15 C-26.33 16.32 -26.66 17.64 -27 19 C-27 17.35 -27 15.7 -27 14 C-25.845 13.979375 -24.69 13.95875 -23.5 13.9375 C-18.74902776 13.35302187 -16.4622944 11.15408513 -13.08984375 7.921875 C-4.47560976 0 -4.47560976 0 0 0 Z " fill="#130D05" transform="translate(155,137)"/>
<path d="M0 0 C3.59331694 0.19962872 4.79828955 0.78738628 7.3125 3.4375 C9.57390893 8.21158553 9.99494601 11.80897733 9 17 C7.29450044 21.17995267 5.25576173 25.09269843 3 29 C1.68 29 0.36 29 -1 29 C-3.68132615 23.63734771 -4.3506848 18.77561935 -4.4375 12.8125 C-4.45941406 12.12349609 -4.48132813 11.43449219 -4.50390625 10.72460938 C-4.48509745 5.86723647 -3.37873054 3.44563609 0 0 Z " fill="#070601" transform="translate(121,69)"/>
<path d="M0 0 C7.59 0 15.18 0 23 0 C21.02 0.99 21.02 0.99 19 2 C16.77464206 5.33803691 16.71021596 6.62819711 16.5859375 10.54296875 C16.54726562 11.61611328 16.50859375 12.68925781 16.46875 13.79492188 C16.42234375 15.47424805 16.42234375 15.47424805 16.375 17.1875 C16.33632812 18.31865234 16.29765625 19.44980469 16.2578125 20.61523438 C16.16347467 23.4099925 16.07788348 26.20474278 16 29 C8.41964286 32.40178571 8.41964286 32.40178571 4 32 C3.67 31.01 3.34 30.02 3 29 C4.65 28.67 6.3 28.34 8 28 C7.91923802 24.22828169 7.80638565 20.45819404 7.6875 16.6875 C7.66494141 15.61564453 7.64238281 14.54378906 7.61914062 13.43945312 C7.58369141 12.41142578 7.54824219 11.38339844 7.51171875 10.32421875 C7.48553467 9.37635498 7.45935059 8.42849121 7.43237305 7.4519043 C6.92225196 4.55910581 6.32081906 3.74564378 4 2 C2.68 1.34 1.36 0.68 0 0 Z " fill="#E2CB73" transform="translate(99,113)"/>
<path d="M0 0 C0.17395523 4.01970396 0.30047689 8.03793237 0.38452148 12.06054688 C0.41957479 13.42649521 0.46723632 14.79218366 0.52807617 16.15722656 C1.01970819 27.4771571 1.01970819 27.4771571 -1.51904297 31.26855469 C-5.7495499 35 -5.7495499 35 -9 35 C-9.17395523 30.98029604 -9.30047689 26.96206763 -9.38452148 22.93945312 C-9.41957479 21.57350479 -9.46723632 20.20781634 -9.52807617 18.84277344 C-10.01970819 7.5228429 -10.01970819 7.5228429 -7.48095703 3.73144531 C-3.2504501 0 -3.2504501 0 0 0 Z " fill="#DFC76F" transform="translate(148,103)"/>
<path d="M0 0 C0.99 0.86625 1.98 1.7325 3 2.625 C9.39852101 8.07082372 14.9214412 12.40332039 23 15 C23 15.66 23 16.32 23 17 C12.77 17 2.54 17 -8 17 C-8 16.34 -8 15.68 -8 15 C-5.69 14.34 -3.38 13.68 -1 13 C-1 11.35 -1 9.7 -1 8 C-2.32 7.34 -3.64 6.68 -5 6 C-4.75 4.125 -4.75 4.125 -4 2 C-1.953125 0.8671875 -1.953125 0.8671875 0 0 Z " fill="#AC904A" transform="translate(176,138)"/>
<path d="M0 0 C5.875 3.625 5.875 3.625 7 7 C7.33926947 9.33247761 7.67240066 11.66585471 8 14 C8.17015625 14.62390625 8.3403125 15.2478125 8.515625 15.890625 C11.24091029 27.75880287 8.35356193 42.36287867 1.98828125 52.55859375 C1.66214844 53.03425781 1.33601563 53.50992188 1 54 C0.67 53.34 0.34 52.68 0 52 C0.70703125 49.96875 0.70703125 49.96875 1.8125 47.5 C6.90297808 35.13489408 7.12657149 22.11669295 5 9 C-1.12415343 12.84282322 -7.16865561 16.72368078 -13 21 C-13 20.34 -13 19.68 -13 19 C-13.99 19.33 -14.98 19.66 -16 20 C-16.99 19.34 -17.98 18.68 -19 18 C-16.39682213 16.04034952 -13.79228758 14.08251018 -11.1875 12.125 C-10.44951172 11.56941406 -9.71152344 11.01382813 -8.95117188 10.44140625 C-7.88286133 9.63896484 -7.88286133 9.63896484 -6.79296875 8.8203125 C-6.1383667 8.32805176 -5.48376465 7.83579102 -4.80932617 7.32861328 C-3.23787519 6.17467505 -1.62218477 5.08145651 0 4 C0 2.68 0 1.36 0 0 Z " fill="#BCAD72" transform="translate(150,128)"/>
<path d="M0 0 C4.08370675 4.08370675 4.24375686 7.13755176 4.25 12.875 C4.18603331 14.91736517 4.10898589 16.95954189 4 19 C1.03 19 -1.94 19 -5 19 C-4.95359375 18.14277344 -4.9071875 17.28554687 -4.859375 16.40234375 C-4.63528982 9.30364522 -4.71121045 4.76306095 -9 -1 C-5.36622418 -2.3458429 -3.34355712 -1.92254535 0 0 Z " fill="#E4D27D" transform="translate(134,70)"/>
<path d="M0 0 C0.99 0.66 1.98 1.32 3 2 C2.34 2 1.68 2 1 2 C1.495 2.37125 1.99 2.7425 2.5 3.125 C4 5 4 5 4.5625 7.6875 C3.55035669 13.64789949 -0.4177653 17.62414374 -4.875 21.5 C-5.57625 21.995 -6.2775 22.49 -7 23 C-8.32 21.35 -9.64 19.7 -11 18 C-10.54109375 17.3709375 -10.0821875 16.741875 -9.609375 16.09375 C-5.87911689 10.89019666 -2.68992929 5.81024726 0 0 Z " fill="#C2A75A" transform="translate(173,103)"/>
<path d="M0 0 C9.24 0 18.48 0 28 0 C28 0.66 28 1.32 28 2 C25.69 2.33 23.38 2.66 21 3 C20.814375 3.78375 20.62875 4.5675 20.4375 5.375 C19 8 19 8 15.5625 9.25 C14.386875 9.4975 13.21125 9.745 12 10 C11.01 10.33 10.02 10.66 9 11 C8.67 8.69 8.34 6.38 8 4 C5.36 3.01 2.72 2.02 0 1 C0 0.67 0 0.34 0 0 Z " fill="#DFC771" transform="translate(130,91)"/>
<path d="M0 0 C3.625 0.375 3.625 0.375 6.0625 1.9375 C8.1498128 5.19370797 7.9165423 7.58495016 7.625 11.375 C5.95833333 11.375 4.29166667 11.375 2.625 11.375 C2.625 12.365 2.625 13.355 2.625 14.375 C3.945 14.705 5.265 15.035 6.625 15.375 C5.33534824 16.75062854 3.99810707 18.08266393 2.625 19.375 C1.965 19.375 1.305 19.375 0.625 19.375 C0.625 13.435 0.625 7.495 0.625 1.375 C-4.8794208 4.39341005 -4.8794208 4.39341005 -7.7890625 9.3203125 C-7.85867187 10.03960937 -7.92828125 10.75890625 -8 11.5 C-8.185625 13.418125 -8.185625 13.418125 -8.375 15.375 C-9.695 14.385 -11.015 13.395 -12.375 12.375 C-10.97590738 7.92334166 -8.77364635 5.51874788 -5.375 2.375 C-3.375 0.375 -3.375 0.375 0 0 Z " fill="#0B0701" transform="translate(147.375,101.625)"/>
<path d="M0 0 C0.20625 1.27875 0.4125 2.5575 0.625 3.875 C1.08483533 6.07813968 1.08483533 6.07813968 2 8 C4.99428144 9.61147442 4.99428144 9.61147442 8 10 C8 10.66 8 11.32 8 12 C-0.58 12 -9.16 12 -18 12 C-18 11.34 -18 10.68 -18 10 C-17.05125 9.835 -16.1025 9.67 -15.125 9.5 C-10.24563214 8.16017358 -6.83048888 4.89839086 -3.0390625 1.6796875 C-1 0 -1 0 0 0 Z " fill="#BFAE70" transform="translate(148,143)"/>
<path d="M0 0 C0.66 0 1.32 0 2 0 C2.33 6.27 2.66 12.54 3 19 C2.34 19 1.68 19 1 19 C0.76925781 18.48050781 0.53851563 17.96101563 0.30078125 17.42578125 C-2.64200822 11.13309705 -5.61055948 6.7406202 -12.3125 4.1875 C-13.529375 3.795625 -14.74625 3.40375 -16 3 C-16 2.34 -16 1.68 -16 1 C-11.05 1.33 -6.1 1.66 -1 2 C-0.67 1.34 -0.34 0.68 0 0 Z " fill="#D9C26D" transform="translate(112,84)"/>
<path d="M0 0 C2.22175281 1.75023895 2.94475643 2.60228592 3.34057617 5.4519043 C3.32486572 6.39976807 3.30915527 7.34763184 3.29296875 8.32421875 C3.28330078 9.35224609 3.27363281 10.38027344 3.26367188 11.43945312 C3.23853516 12.51130859 3.21339844 13.58316406 3.1875 14.6875 C3.17396484 15.77095703 3.16042969 16.85441406 3.14648438 17.97070312 C3.11110643 20.64763405 3.06174189 23.32356838 3 26 C1.35 26.33 -0.3 26.66 -2 27 C-1.01 28.32 -0.02 29.64 1 31 C0.01 31.33 -0.98 31.66 -2 32 C-4.38621806 28.42067291 -4.4785033 27.22677916 -4 23 C-3.34 21.865625 -2.68 20.73125 -2 19.5625 C1.29443973 13.63482851 0.30780515 6.56650995 0 0 Z " fill="#2F240B" transform="translate(104,115)"/>
<path d="M0 0 C0.33 0 0.66 0 1 0 C0.62429895 9.76822724 -4.36933879 18.20369986 -10 26 C-9.01 27.32 -8.02 28.64 -7 30 C-10.36591866 28.55746343 -12.51047079 26.66735273 -15 24 C-13.51522561 20.43175186 -11.49269869 18.48603621 -8.625 15.9375 C-3.73471354 11.21258555 -1.73574862 6.4938847 0 0 Z " fill="#110C01" transform="translate(173,96)"/>
<path d="M0 0 C1.27230469 0.00902344 2.54460937 0.01804687 3.85546875 0.02734375 C5.31919922 0.04474609 5.31919922 0.04474609 6.8125 0.0625 C5.8225 0.3925 4.8325 0.7225 3.8125 1.0625 C3.8125 1.7225 3.8125 2.3825 3.8125 3.0625 C3.12285156 3.13726562 2.43320313 3.21203125 1.72265625 3.2890625 C-5.56763556 4.30910333 -10.41315006 6.52856597 -16.1875 11.0625 C-16.1875 9.7425 -16.1875 8.4225 -16.1875 7.0625 C-16.8475 6.7325 -17.5075 6.4025 -18.1875 6.0625 C-16.91918307 5.24607746 -15.64774069 4.43450895 -14.375 3.625 C-13.66730469 3.17253906 -12.95960937 2.72007813 -12.23046875 2.25390625 C-8.11484781 -0.14621686 -4.67558097 -0.04289524 0 0 Z " fill="#C6A957" transform="translate(92.1875,83.9375)"/>
<path d="M0 0 C0.66 0 1.32 0 2 0 C2.33 1.32 2.66 2.64 3 4 C3.66 3.67 4.32 3.34 5 3 C5 4.32 5 5.64 5 7 C5.99 7.66 6.98 8.32 8 9 C7.195625 8.814375 6.39125 8.62875 5.5625 8.4375 C4.716875 8.293125 3.87125 8.14875 3 8 C2.67 8.33 2.34 8.66 2 9 C-0.01964199 9.07244053 -2.04167124 9.08377188 -4.0625 9.0625 C-5.71958984 9.04896484 -5.71958984 9.04896484 -7.41015625 9.03515625 C-8.26480469 9.02355469 -9.11945313 9.01195312 -10 9 C-10.625 7.125 -10.625 7.125 -11 5 C-10.34 4.34 -9.68 3.68 -9 3 C-7.328451 3.30791692 -5.66194453 3.64386903 -4 4 C-1.76832815 3.63143136 -1.76832815 3.63143136 0 3 C0 2.01 0 1.02 0 0 Z " fill="#999999" transform="translate(109,266)"/>
<path d="M0 0 C1.13050781 -0.01675781 2.26101562 -0.03351563 3.42578125 -0.05078125 C6.94582347 0.34127136 8.82897086 1.27988734 11.6875 3.3125 C11.0275 3.9725 10.3675 4.6325 9.6875 5.3125 C10.0484375 5.89515625 10.409375 6.4778125 10.78125 7.078125 C14.69128455 13.9858527 15.29492973 19.45640887 14.6875 27.3125 C14.0275 27.3125 13.3675 27.3125 12.6875 27.3125 C12.67332031 26.47847656 12.65914062 25.64445312 12.64453125 24.78515625 C12.32630221 17.27667097 11.58153909 11.24105142 6.6875 5.3125 C1.95367933 1.76213449 -2.63562003 1.9718872 -8.3125 2.3125 C-5.55375965 -0.44624035 -3.84573529 0.01306592 0 0 Z " fill="#B5A064" transform="translate(162.3125,68.6875)"/>
<path d="M0 0 C0.66 0 1.32 0 2 0 C2 1.65 2 3.3 2 5 C3.65 5 5.3 5 7 5 C6.67 3.35 6.34 1.7 6 0 C6.99 0.33 7.98 0.66 9 1 C11.63804589 0.60602665 11.63804589 0.60602665 14 0 C14.98120464 3.05263664 14.98120464 4.94736336 14 8 C13.21625 7.814375 12.4325 7.62875 11.625 7.4375 C9.02910225 6.74037734 9.02910225 6.74037734 7 8 C7 7.34 7 6.68 7 6 C5.35 6 3.7 6 2 6 C1.67 6.66 1.34 7.32 1 8 C1 7.34 1 6.68 1 6 C-0.32 5.67 -1.64 5.34 -3 5 C-1.68 5 -0.36 5 1 5 C0.67 3.35 0.34 1.7 0 0 Z " fill="#AAAAAA" transform="translate(156,267)"/>
<path d="M0 0 C0.33 0.99 0.66 1.98 1 3 C2.98 3 4.96 3 7 3 C7 4.65 7 6.3 7 8 C7.66 8 8.32 8 9 8 C9 6.35 9 4.7 9 3 C9.99 3 10.98 3 12 3 C12.33 2.34 12.66 1.68 13 1 C13 1.66 13 2.32 13 3 C13.99 3 14.98 3 16 3 C16.33 2.34 16.66 1.68 17 1 C17 1.66 17 2.32 17 3 C17.66 3.33 18.32 3.66 19 4 C18.34 4 17.68 4 17 4 C17 5.32 17 6.64 17 8 C17.66 8.33 18.32 8.66 19 9 C18.01 9 17.02 9 16 9 C16 7.35 16 5.7 16 4 C15.01 4 14.02 4 13 4 C13 5.32 13 6.64 13 8 C13.66 8.33 14.32 8.66 15 9 C11.04 9 7.08 9 3 9 C3 7.35 3 5.7 3 4 C2.34 4 1.68 4 1 4 C1 5.65 1 7.3 1 9 C0.67 9 0.34 9 0 9 C0 6.03 0 3.06 0 0 Z " fill="#747474" transform="translate(60,266)"/>
<path d="M0 0 C1.77503906 0.03480469 1.77503906 0.03480469 3.5859375 0.0703125 C5.36871094 0.09738281 5.36871094 0.09738281 7.1875 0.125 C8.10273438 0.14820313 9.01796875 0.17140625 9.9609375 0.1953125 C8.9709375 0.6903125 8.9709375 0.6903125 7.9609375 1.1953125 C7.9609375 2.8453125 7.9609375 4.4953125 7.9609375 6.1953125 C4.0009375 6.1953125 0.0409375 6.1953125 -4.0390625 6.1953125 C-4.3690625 4.8753125 -4.6990625 3.5553125 -5.0390625 2.1953125 C-3.0390625 0.1953125 -3.0390625 0.1953125 0 0 Z " fill="#8B8B8B" transform="translate(123.0390625,268.8046875)"/>
<path d="M0 0 C0.99 0.66 1.98 1.32 3 2 C2.34 2 1.68 2 1 2 C1.495 2.37125 1.99 2.7425 2.5 3.125 C4 5 4 5 4.4375 7.875 C3.90917428 11.64875512 2.57702263 13.26191346 0 16 C-0.33 14.35 -0.66 12.7 -1 11 C-1.66 11 -2.32 11 -3 11 C-4 8 -4 8 -3.22265625 5.95703125 C-2.83980469 5.24933594 -2.45695313 4.54164062 -2.0625 3.8125 C-1.68222656 3.09707031 -1.30195313 2.38164063 -0.91015625 1.64453125 C-0.60980469 1.10183594 -0.30945313 0.55914062 0 0 Z " fill="#BB9E51" transform="translate(173,103)"/>
<path d="M0 0 C3.3 0 6.6 0 10 0 C10.33 1.32 10.66 2.64 11 4 C10.34 4.66 9.68 5.32 9 6 C9.66 6.66 10.32 7.32 11 8 C7.37 8 3.74 8 0 8 C0.99 7.67 1.98 7.34 3 7 C3 6.01 3 5.02 3 4 C2.01 4 1.02 4 0 4 C0 2.68 0 1.36 0 0 Z " fill="#999999" transform="translate(190,267)"/>
<path d="M0 0 C0.556875 0.309375 1.11375 0.61875 1.6875 0.9375 C5.52364163 2.70005156 8.78530406 3 13 3 C15.140625 3.65625 15.140625 3.65625 17.25 4.5 C17.95640625 4.7784375 18.6628125 5.056875 19.390625 5.34375 C20.18726563 5.66859375 20.18726563 5.66859375 21 6 C21 6.99 21 7.98 21 9 C13.96095477 9.65176345 8.87769417 7.96718257 3 4 C1.20703125 1.828125 1.20703125 1.828125 0 0 Z " fill="#C8AD5A" transform="translate(70,137)"/>
<path d="M0 0 C3.36720387 1.39332574 4.9859524 2.9789286 7 6 C6.01 6.66 5.02 7.32 4 8 C4.34786708 9.97536745 4.34786708 9.97536745 5 12 C5.66 12.33 6.32 12.66 7 13 C7 14.65 7 16.3 7 18 C6.1646875 16.9171875 6.1646875 16.9171875 5.3125 15.8125 C3.05525207 12.91873299 3.05525207 12.91873299 0.1875 10.5 C-2 8 -2 8 -1.875 5.375 C-1.58625 4.59125 -1.2975 3.8075 -1 3 C-0.67 2.01 -0.34 1.02 0 0 Z " fill="#BCA153" transform="translate(168,133)"/>
<path d="M0 0 C1.32 0.33 2.64 0.66 4 1 C3.34 1 2.68 1 2 1 C2 1.66 2 2.32 2 3 C2.5775 2.690625 3.155 2.38125 3.75 2.0625 C5.85801505 1.06704845 7.70653231 0.39542546 10 0 C11 1 11 1 11.0625 4.0625 C11.041875 5.031875 11.02125 6.00125 11 7 C9.1875 7.625 9.1875 7.625 7 8 C6.01 7.34 5.02 6.68 4 6 C4 6.66 4 7.32 4 8 C2.68 7.67 1.36 7.34 0 7 C0.99 7 1.98 7 3 7 C3 6.01 3 5.02 3 4 C2.01 4 1.02 4 0 4 C0 2.68 0 1.36 0 0 Z " fill="#6A6A6A" transform="translate(178,267)"/>
<path d="M0 0 C5.875 3.625 5.875 3.625 7 7 C4.69 7.33 2.38 7.66 0 8 C0.66 8.66 1.32 9.32 2 10 C-0.31 11.65 -2.62 13.3 -5 15 C-5 11 -5 11 -3 9 C-3 8.01 -3 7.02 -3 6 C-2.01 5.34 -1.02 4.68 0 4 C0 2.68 0 1.36 0 0 Z " fill="#CCB96D" transform="translate(150,128)"/>
<path d="M0 0 C0.33 0 0.66 0 1 0 C1.33 9.57 1.66 19.14 2 29 C1.01 29.33 0.02 29.66 -1 30 C-1.02465746 25.8882744 -1.04283959 21.77657722 -1.05493164 17.66479492 C-1.0599708 16.26504772 -1.06680216 14.8653058 -1.07543945 13.46557617 C-1.0875232 11.45754223 -1.09269807 9.44947043 -1.09765625 7.44140625 C-1.10289307 6.23170166 -1.10812988 5.02199707 -1.11352539 3.77563477 C-1 1 -1 1 0 0 Z " fill="#C9B97D" transform="translate(140,108)"/>
<path d="M0 0 C1 3 1 3 0 5.8125 C-2.44917033 9.71586522 -5.38358064 12.20594449 -9 15 C-9.66 13.68 -10.32 12.36 -11 11 C-7.37 7.37 -3.74 3.74 0 0 Z " fill="#B49D5C" transform="translate(171,99)"/>
<path d="M0 0 C3.4763783 0.18177141 4.67573035 0.59395281 7.75 2.5 C10.35427483 6.7536489 9.66541244 9.83428902 8.625 14.5625 C6.645 15.2225 4.665 15.8825 2.625 16.5625 C2.295 15.2425 1.965 13.9225 1.625 12.5625 C3.29166667 12.5625 4.95833333 12.5625 6.625 12.5625 C6.99554871 7.92268125 6.99554871 7.92268125 5.5625 3.625 C2.53086445 1.96249018 0.01469378 2.26515844 -3.375 2.5625 C-5.72869807 3.44314927 -5.72869807 3.44314927 -7.375 4.5625 C-5.63594564 0.85251737 -3.89960069 0.20114413 0 0 Z " fill="#A0956C" transform="translate(147.375,100.4375)"/>
<path d="M0 0 C0.66 2.97 1.32 5.94 2 9 C-1.96 9 -5.92 9 -10 9 C-2.5 0 -2.5 0 0 0 Z " fill="#DFC876" transform="translate(148,143)"/>
<path d="M0 0 C0.33 0 0.66 0 1 0 C1.268125 1.11375 1.53625 2.2275 1.8125 3.375 C2.65809019 7.21840951 2.65809019 7.21840951 6 9 C12.55267157 9 16.22130406 6.0587885 21 2 C18.86859698 6.87950641 15.47060161 10.16242104 11 13 C6.5659281 13.29560479 4.89752489 12.78245759 1.5625 9.875 C-0.34690605 6.36169288 -0.30912975 3.94140436 0 0 Z " fill="#D8BE71" transform="translate(99,139)"/>
<path d="M0 0 C8.91 0 17.82 0 27 0 C27 0.33 27 0.66 27 1 C21.06 1 15.12 1 9 1 C9.66 1.99 10.32 2.98 11 4 C11.07905064 6.33199388 11.08798769 8.66832622 11 11 C10.34 11 9.68 11 9 11 C8.67 8.69 8.34 6.38 8 4 C5.36 3.01 2.72 2.02 0 1 C0 0.67 0 0.34 0 0 Z " fill="#E1D090" transform="translate(130,91)"/>
<path d="M0 0 C5.0302076 0.52537724 10.01885239 1.10594786 15 2 C14.01 2.66 13.02 3.32 12 4 C12.33 5.65 12.66 7.3 13 9 C12.34 8.401875 11.68 7.80375 11 7.1875 C7.41816003 4.57574169 4.18622274 3.41905856 0 2 C0 1.34 0 0.68 0 0 Z " fill="#C5B265" transform="translate(96,85)"/>
<path d="M0 0 C0 3 0 3 -1.390625 4.53515625 C-2.31101563 5.29119141 -2.31101563 5.29119141 -3.25 6.0625 C-4.15492188 6.82240234 -4.15492188 6.82240234 -5.078125 7.59765625 C-8.49846143 10.09338954 -10.98141109 11.2672863 -15.25 11.125 C-17.10625 11.063125 -17.10625 11.063125 -19 11 C-19 10.34 -19 9.68 -19 9 C-17.82244141 8.77957031 -17.82244141 8.77957031 -16.62109375 8.5546875 C-9.41142757 7.01544589 -5.16715488 5.28459022 0 0 Z " fill="#BCAF7C" transform="translate(149,182)"/>
<path d="M0 0 C3.125 0.375 3.125 0.375 6 1 C6 2.32 6 3.64 6 5 C6.66 5.33 7.32 5.66 8 6 C5.03 6 2.06 6 -1 6 C-1.33 4.68 -1.66 3.36 -2 2 C-1.34 1.34 -0.68 0.68 0 0 Z " fill="#898989" transform="translate(100,269)"/>
<path d="M0 0 C0.99 0.33 1.98 0.66 3 1 C1.33456731 2.54496739 -0.35842926 4.06025728 -2.0625 5.5625 C-3.47208984 6.83287109 -3.47208984 6.83287109 -4.91015625 8.12890625 C-8 10 -8 10 -11.87109375 9.77734375 C-13.41990234 9.39255859 -13.41990234 9.39255859 -15 9 C-15.33 10.32 -15.66 11.64 -16 13 C-16 11.35 -16 9.7 -16 8 C-14.845 7.979375 -13.69 7.95875 -12.5 7.9375 C-7.58261797 7.38724233 -5.12083381 4.84612963 -1.76171875 1.3984375 C-1.18035156 0.93695313 -0.59898437 0.47546875 0 0 Z " fill="#5F5324" transform="translate(144,143)"/>
<path d="M0 0 C2.97 0 5.94 0 9 0 C8.01 0.495 8.01 0.495 7 1 C7 2.65 7 4.3 7 6 C6.34 6 5.68 6 5 6 C5 5.01 5 4.02 5 3 C3.68 3 2.36 3 1 3 C1 3.66 1 4.32 1 5 C1.99 4.67 2.98 4.34 4 4 C4 4.66 4 5.32 4 6 C2.68 6 1.36 6 0 6 C-1.125 2.25 -1.125 2.25 0 0 Z " fill="#919191" transform="translate(80,269)"/>
<path d="M0 0 C-0.33 1.32 -0.66 2.64 -1 4 C-3.64 4 -6.28 4 -9 4 C-9 5.65 -9 7.3 -9 9 C-9.33 9 -9.66 9 -10 9 C-10.35789474 3.63157895 -10.35789474 3.63157895 -8.9375 1.125 C-5.99772876 -0.58196395 -3.32129197 -0.18799766 0 0 Z " fill="#EADB8A" transform="translate(137,147)"/>
<path d="M0 0 C0.33 1.32 0.66 2.64 1 4 C-2.69969252 7.03903314 -5.23004695 8 -10 8 C-8.71451591 6.66070495 -7.42141845 5.32871357 -6.125 4 C-5.04605469 2.88625 -5.04605469 2.88625 -3.9453125 1.75 C-2 0 -2 0 0 0 Z " fill="#CBB367" transform="translate(161,111)"/>
<path d="M0 0 C1.93166016 0.01740234 1.93166016 0.01740234 3.90234375 0.03515625 C5.19269531 0.04417969 6.48304687 0.05320312 7.8125 0.0625 C8.81152344 0.07410156 9.81054688 0.08570312 10.83984375 0.09765625 C9.84984375 0.42765625 8.85984375 0.75765625 7.83984375 1.09765625 C7.83984375 1.75765625 7.83984375 2.41765625 7.83984375 3.09765625 C6.40276285 3.15188572 4.96508913 3.19055348 3.52734375 3.22265625 C2.72683594 3.24585937 1.92632812 3.2690625 1.1015625 3.29296875 C-1.16015625 3.09765625 -1.16015625 3.09765625 -4.16015625 1.09765625 C-3.16015625 0.09765625 -3.16015625 0.09765625 0 0 Z " fill="#C9AF62" transform="translate(88.16015625,83.90234375)"/>
<path d="M0 0 C0.12375 0.639375 0.2475 1.27875 0.375 1.9375 C0.684375 2.9584375 0.684375 2.9584375 1 4 C1.66 4.33 2.32 4.66 3 5 C2.69593558 8.24519666 2.43719323 9.61900552 -0.06640625 11.80078125 C-0.89011719 12.29964844 -1.71382812 12.79851562 -2.5625 13.3125 C-3.38878906 13.82425781 -4.21507812 14.33601562 -5.06640625 14.86328125 C-5.70449219 15.23839844 -6.34257812 15.61351562 -7 16 C-5.2578125 12.1484375 -5.2578125 12.1484375 -2.9375 10.8125 C0.1877911 7.88884058 -0.17249832 4.114085 0 0 Z " fill="#352A0E" transform="translate(148,123)"/>
<path d="M0 0 C0.66 0.66 1.32 1.32 2 2 C1.030625 2.66 0.06125 3.32 -0.9375 4 C-3.68983267 6.24719867 -4.46800363 7.78728525 -4.875 11.3125 C-4.91625 12.529375 -4.9575 13.74625 -5 15 C-6.32 14.01 -7.64 13.02 -9 12 C-7.60090738 7.54834166 -5.39864635 5.14374788 -2 2 C-1.34 1.34 -0.68 0.68 0 0 Z " fill="#251E0C" transform="translate(144,102)"/>
<path d="M0 0 C0.33 0 0.66 0 1 0 C0.61330541 6.96050253 -1.63438409 11.9394075 -5 18 C-5.66 16.68 -6.32 15.36 -7 14 C-6.401875 13.360625 -5.80375 12.72125 -5.1875 12.0625 C-2.46756681 8.25459354 -1.28274627 4.46045863 0 0 Z " fill="#251805" transform="translate(173,96)"/>
<path d="M0 0 C0.556875 0.309375 1.11375 0.61875 1.6875 0.9375 C5.48163284 2.68075022 7.99451099 3.335163 12 2 C12 3.98 12 5.96 12 8 C6.80421104 6.63919813 3.86388964 4.58789752 0 1 C0 0.67 0 0.34 0 0 Z " fill="#C5A552" transform="translate(70,137)"/>
<path d="M0 0 C0.05389087 1.95803507 0.09274217 3.91648909 0.125 5.875 C0.14820312 6.96554688 0.17140625 8.05609375 0.1953125 9.1796875 C0 12 0 12 -2 14 C-2.1953125 11.98177083 -2.390625 9.96354167 -2.5859375 7.9453125 C-2.86374749 5.77331755 -2.86374749 5.77331755 -5 4 C-1.125 0 -1.125 0 0 0 Z " fill="#CCB975" transform="translate(105,118)"/>
<path d="M0 0 C0.33 0 0.66 0 1 0 C1.33 4.29 1.66 8.58 2 13 C3.32 13.33 4.64 13.66 6 14 C4.71034824 15.37562854 3.37310707 16.70766393 2 18 C1.34 18 0.68 18 0 18 C0 12.06 0 6.12 0 0 Z " fill="#3E3210" transform="translate(148,103)"/>
<path d="M0 0 C0.66 0 1.32 0 2 0 C2 1.65 2 3.3 2 5 C3.65 5 5.3 5 7 5 C6.67 3.35 6.34 1.7 6 0 C6.66 0 7.32 0 8 0 C8.625 2.875 8.625 2.875 9 6 C8.34 6.66 7.68 7.32 7 8 C7 7.34 7 6.68 7 6 C5.35 6 3.7 6 2 6 C1.67 6.66 1.34 7.32 1 8 C1 7.34 1 6.68 1 6 C-0.32 5.67 -1.64 5.34 -3 5 C-1.68 5 -0.36 5 1 5 C0.67 3.35 0.34 1.7 0 0 Z " fill="#383838" transform="translate(156,267)"/>
<path d="M0 0 C1.32 0.33 2.64 0.66 4 1 C4 2.98 4 4.96 4 7 C2.68 7.33 1.36 7.66 0 8 C0 5.36 0 2.72 0 0 Z " fill="#A4A4A4" transform="translate(185,267)"/>
<path d="M0 0 C2.97 1.65 5.94 3.3 9 5 C9 5.66 9 6.32 9 7 C6.1875 7.25 6.1875 7.25 3 7 C1.125 5.1875 1.125 5.1875 0 3 C0 2.01 0 1.02 0 0 Z " fill="#A88845" transform="translate(184,146)"/>
<path d="M0 0 C-0.33 0.66 -0.66 1.32 -1 2 C-1.66 2 -2.32 2 -3 2 C-3 2.99 -3 3.98 -3 5 C-4.65 5 -6.3 5 -8 5 C-8 4.01 -8 3.02 -8 2 C-3.71900826 -1.23966942 -3.71900826 -1.23966942 0 0 Z " fill="#DBC471" transform="translate(148,137)"/>
<path d="M0 0 C1.32 0 2.64 0 4 0 C4.33 0.99 4.66 1.98 5 3 C3.35 4.32 1.7 5.64 0 7 C0 5.68 0 4.36 0 3 C-0.66 2.67 -1.32 2.34 -2 2 C-1.34 1.34 -0.68 0.68 0 0 Z " fill="#D1AA52" transform="translate(76,88)"/>
<path d="M0 0 C0.33 0.66 0.66 1.32 1 2 C1.99 2 2.98 2 4 2 C4.33 1.34 4.66 0.68 5 0 C5 0.66 5 1.32 5 2 C5.66 2.33 6.32 2.66 7 3 C6.34 3 5.68 3 5 3 C5 4.32 5 5.64 5 7 C5.66 7.33 6.32 7.66 7 8 C6.01 8 5.02 8 4 8 C4 6.35 4 4.7 4 3 C3.01 3 2.02 3 1 3 C1 4.32 1 5.64 1 7 C1.66 7.33 2.32 7.66 3 8 C2.01 8 1.02 8 0 8 C0 5.36 0 2.72 0 0 Z " fill="#4C4C4C" transform="translate(72,267)"/>
<path d="M0 0 C0 3 0 3 -1.6796875 4.82421875 C-2.40414062 5.43910156 -3.12859375 6.05398437 -3.875 6.6875 C-4.59429687 7.31011719 -5.31359375 7.93273437 -6.0546875 8.57421875 C-8 10 -8 10 -10 10 C-8.65790834 5.97372501 -6.51298199 5.24830847 -3 3 C-1.20605554 1.37648891 -1.20605554 1.37648891 0 0 Z " fill="#D4C58B" transform="translate(119,141)"/>
<path d="M0 0 C0.309375 0.804375 0.309375 0.804375 0.625 1.625 C2.57996944 5.0017654 5.18223695 7.30474839 8 10 C7.67 10.66 7.34 11.32 7 12 C5.49403892 10.54782324 3.99537896 9.08807139 2.5 7.625 C1.6646875 6.81289062 0.829375 6.00078125 -0.03125 5.1640625 C-2 3 -2 3 -2 1 C-1.34 0.67 -0.68 0.34 0 0 Z " fill="#C6B36E" transform="translate(150,120)"/>
<path d="M0 0 C0.33 0 0.66 0 1 0 C1 3.96 1 7.92 1 12 C0.67 10.68 0.34 9.36 0 8 C-2.31 8 -4.62 8 -7 8 C-4.66785852 6.79371992 -2.50357861 5.8345262 0 5 C0 3.35 0 1.7 0 0 Z " fill="#251905" transform="translate(174,83)"/>
<path d="M0 0 C7.48291572 6.15034169 7.48291572 6.15034169 10 10 C9.01 10.495 9.01 10.495 8 11 C3.125 6.375 3.125 6.375 2 3 C1.34 3 0.68 3 0 3 C0 2.01 0 1.02 0 0 Z " fill="#180C00" transform="translate(149,124)"/>
<path d="M0 0 C2 0.25 2 0.25 4 1 C4.33 1.99 4.66 2.98 5 4 C3.35 4.33 1.7 4.66 0 5 C-0.5625 3.0625 -0.5625 3.0625 -1 1 C-0.67 0.67 -0.34 0.34 0 0 Z " fill="#B0B0B0" transform="translate(119,270)"/>
<path d="M0 0 C2.32590854 3.63423209 2.16265833 6.77088331 2 11 C1.34 11 0.68 11 0 11 C-0.66 9.02 -1.32 7.04 -2 5 C-1.34 5 -0.68 5 0 5 C0 3.35 0 1.7 0 0 Z " fill="#C6B579" transform="translate(113,92)"/>
<path d="M0 0 C2.31 0 4.62 0 7 0 C7.33 1.98 7.66 3.96 8 6 C6.02 6.99 6.02 6.99 4 8 C4 6.02 4 4.04 4 2 C2.68 1.34 1.36 0.68 0 0 Z " fill="#7F724A" transform="translate(167,91)"/>
<path d="M0 0 C1 3 1 3 -0.4375 6.1875 C-1.2109375 7.5796875 -1.2109375 7.5796875 -2 9 C-2.66 7.68 -3.32 6.36 -4 5 C-2.68 3.35 -1.36 1.7 0 0 Z " fill="#B29D5E" transform="translate(171,99)"/>
<path d="M0 0 C1.32 0 2.64 0 4 0 C4.66 1.98 5.32 3.96 6 6 C5.01 6.33 4.02 6.66 3 7 C0 2.25 0 2.25 0 0 Z " fill="#BCA04C" transform="translate(171,72)"/>
<path d="M0 0 C0.33 0.66 0.66 1.32 1 2 C-1.31 2.33 -3.62 2.66 -6 3 C-6.66 4.65 -7.32 6.3 -8 8 C-8.33 8 -8.66 8 -9 8 C-9 5.69 -9 3.38 -9 1 C-4.545 0.505 -4.545 0.505 0 0 Z " fill="#998957" transform="translate(157,91)"/>
<path d="M0 0 C0.66 0 1.32 0 2 0 C2.33 0.99 2.66 1.98 3 3 C4.29355827 4.37195574 5.62298702 5.71182656 7 7 C4 7 4 7 1.8125 5.1875 C0 3 0 3 0 0 Z " fill="#C0A763" transform="translate(158,130)"/>
<path d="M0 0 C1.32 0.66 2.64 1.32 4 2 C4 2.66 4 3.32 4 4 C2.68 4.33 1.36 4.66 0 5 C-0.5625 3.0625 -0.5625 3.0625 -1 1 C-0.67 0.67 -0.34 0.34 0 0 Z " fill="#C3B06E" transform="translate(150,112)"/>
<path d="M0 0 C0.33 0 0.66 0 1 0 C1.125 2.375 1.125 2.375 1 5 C0.34 5.66 -0.32 6.32 -1 7 C-1.99 7 -2.98 7 -4 7 C-2.79618552 4.50638429 -1.54571278 2.31856917 0 0 Z " fill="#C6AC5B" transform="translate(167,104)"/>
<path d="M0 0 C2.875 -0.125 2.875 -0.125 6 0 C6.66 0.66 7.32 1.32 8 2 C4.71303767 2.79953138 3.28976808 3.09658936 0 2 C0 1.34 0 0.68 0 0 Z " fill="#DBC375" transform="translate(96,85)"/>
<path d="M0 0 C0.99 0.33 1.98 0.66 3 1 C3 2.66666667 3 4.33333333 3 6 C1.68 6 0.36 6 -1 6 C-1 2 -1 2 0 0 Z " fill="#7F7F7F" transform="translate(90,269)"/>
<path d="M0 0 C3 1 3 1 4 3 C3.01 3 2.02 3 1 3 C1 3.66 1 4.32 1 5 C1.99 4.67 2.98 4.34 4 4 C4 4.66 4 5.32 4 6 C2.68 6 1.36 6 0 6 C-1.125 2.25 -1.125 2.25 0 0 Z " fill="#5B5B5B" transform="translate(80,269)"/>
<path d="M0 0 C0.33 0 0.66 0 1 0 C1.33 3.96 1.66 7.92 2 12 C1.01 11.67 0.02 11.34 -1 11 C-0.67 7.37 -0.34 3.74 0 0 Z " fill="#B6A86B" transform="translate(126,170)"/>
<path d="M0 0 C0.99 0.33 1.98 0.66 3 1 C-2.75 6 -2.75 6 -5 6 C-3.63016497 2.83884224 -3.0109362 2.0072908 0 0 Z " fill="#423414" transform="translate(144,143)"/>
<path d="M0 0 C0.33 1.32 0.66 2.64 1 4 C2.65 4 4.3 4 6 4 C3 6 3 6 0.8125 5.625 C0.214375 5.41875 -0.38375 5.2125 -1 5 C-0.67 3.35 -0.34 1.7 0 0 Z " fill="#CBBF80" transform="translate(128,90)"/>
</svg>
